<mxfile host="65bd71144e">
    <diagram id="OSYEiRj9sg5RPmbNtYFL" name="Page-1">
        <mxGraphModel dx="1215" dy="679" grid="1" gridSize="10" guides="1" tooltips="1" connect="1" arrows="1" fold="1" page="1" pageScale="1" pageWidth="850" pageHeight="1100" math="0" shadow="0">
            <root>
                <mxCell id="0"/>
                <mxCell id="1" parent="0"/>
                <mxCell id="18" value="" style="whiteSpace=wrap;html=1;" parent="1" vertex="1">
                    <mxGeometry x="300" y="20" width="480" height="490" as="geometry"/>
                </mxCell>
                <mxCell id="2" value="Frontend" style="whiteSpace=wrap;html=1;" parent="1" vertex="1">
                    <mxGeometry x="80" y="20" width="80" height="490" as="geometry"/>
                </mxCell>
                <mxCell id="9" value="" style="edgeStyle=none;html=1;entryX=0.005;entryY=0.223;entryDx=0;entryDy=0;entryPerimeter=0;" parent="1" source="3" target="6" edge="1">
                    <mxGeometry relative="1" as="geometry"/>
                </mxCell>
                <mxCell id="3" value="Tokenizer" style="whiteSpace=wrap;html=1;" parent="1" vertex="1">
                    <mxGeometry x="320" y="240" width="120" height="60" as="geometry"/>
                </mxCell>
                <mxCell id="4" value="Storage" style="whiteSpace=wrap;html=1;" parent="1" vertex="1">
                    <mxGeometry x="620" y="220" width="120" height="280" as="geometry"/>
                </mxCell>
                <mxCell id="5" value="Query" style="whiteSpace=wrap;html=1;" parent="1" vertex="1">
                    <mxGeometry x="320" y="430" width="270" height="60" as="geometry"/>
                </mxCell>
                <mxCell id="10" value="" style="edgeStyle=none;html=1;exitX=1.003;exitY=0.306;exitDx=0;exitDy=0;entryX=-0.003;entryY=0.217;entryDx=0;entryDy=0;exitPerimeter=0;entryPerimeter=0;" parent="1" source="6" target="4" edge="1">
                    <mxGeometry relative="1" as="geometry"/>
                </mxCell>
                <mxCell id="6" value="Ingestion" style="whiteSpace=wrap;html=1;" parent="1" vertex="1">
                    <mxGeometry x="470" y="240" width="120" height="130" as="geometry"/>
                </mxCell>
                <mxCell id="8" value="" style="endArrow=classic;startArrow=classic;html=1;entryX=0;entryY=0.5;entryDx=0;entryDy=0;exitX=1.008;exitY=0.51;exitDx=0;exitDy=0;exitPerimeter=0;" parent="1" source="2" target="3" edge="1">
                    <mxGeometry width="50" height="50" relative="1" as="geometry">
                        <mxPoint x="270" y="310" as="sourcePoint"/>
                        <mxPoint x="320" y="260" as="targetPoint"/>
                    </mxGeometry>
                </mxCell>
                <mxCell id="11" value="" style="endArrow=classic;html=1;exitX=-0.009;exitY=0.867;exitDx=0;exitDy=0;exitPerimeter=0;entryX=0.996;entryY=0.556;entryDx=0;entryDy=0;entryPerimeter=0;" parent="1" source="4" target="5" edge="1">
                    <mxGeometry width="50" height="50" relative="1" as="geometry">
                        <mxPoint x="390" y="360" as="sourcePoint"/>
                        <mxPoint x="440" y="310" as="targetPoint"/>
                    </mxGeometry>
                </mxCell>
                <mxCell id="14" value="" style="endArrow=classic;startArrow=classic;html=1;entryX=0;entryY=0.5;entryDx=0;entryDy=0;exitX=1.009;exitY=0.898;exitDx=0;exitDy=0;exitPerimeter=0;" parent="1" source="2" target="5" edge="1">
                    <mxGeometry width="50" height="50" relative="1" as="geometry">
                        <mxPoint x="280" y="400" as="sourcePoint"/>
                        <mxPoint x="330" y="350" as="targetPoint"/>
                    </mxGeometry>
                </mxCell>
                <mxCell id="15" value="" style="endArrow=classic;startArrow=classic;html=1;exitX=1.013;exitY=0.653;exitDx=0;exitDy=0;exitPerimeter=0;" parent="1" source="2" edge="1">
                    <mxGeometry width="50" height="50" relative="1" as="geometry">
                        <mxPoint x="250.0000000000001" y="340.37" as="sourcePoint"/>
                        <mxPoint x="470" y="340" as="targetPoint"/>
                    </mxGeometry>
                </mxCell>
                <mxCell id="16" value="Parse" style="whiteSpace=wrap;html=1;" parent="1" vertex="1">
                    <mxGeometry x="320" y="130" width="120" height="60" as="geometry"/>
                </mxCell>
                <mxCell id="17" value="" style="endArrow=classic;startArrow=classic;html=1;entryX=0;entryY=0.5;entryDx=0;entryDy=0;exitX=0.988;exitY=0.286;exitDx=0;exitDy=0;exitPerimeter=0;" parent="1" source="2" target="16" edge="1">
                    <mxGeometry width="50" height="50" relative="1" as="geometry">
                        <mxPoint x="260" y="200" as="sourcePoint"/>
                        <mxPoint x="310" y="150" as="targetPoint"/>
                    </mxGeometry>
                </mxCell>
                <mxCell id="19" value="Backend" style="text;strokeColor=none;align=center;fillColor=none;html=1;verticalAlign=middle;whiteSpace=wrap;rounded=0;" parent="1" vertex="1">
                    <mxGeometry x="510" y="20" width="60" height="30" as="geometry"/>
                </mxCell>
                <mxCell id="20" value="Grok" style="whiteSpace=wrap;html=1;" parent="1" vertex="1">
                    <mxGeometry x="320" y="50" width="120" height="60" as="geometry"/>
                </mxCell>
                <mxCell id="21" value="" style="endArrow=classic;startArrow=classic;html=1;entryX=0;entryY=0.5;entryDx=0;entryDy=0;exitX=1.026;exitY=0.12;exitDx=0;exitDy=0;exitPerimeter=0;" parent="1" source="2" edge="1">
                    <mxGeometry width="50" height="50" relative="1" as="geometry">
                        <mxPoint x="250" y="79.66" as="sourcePoint"/>
                        <mxPoint x="321" y="79.66" as="targetPoint"/>
                    </mxGeometry>
                </mxCell>
            </root>
        </mxGraphModel>
    </diagram>
</mxfile>